{"title":"Savas TanrÃ„Â±sÃ„Â± XviD TrDuB 2005 MesajForUM.CoM.avi","uid":5825455,"size":1468594176,"categoryP":"video","categoryS":"movies","magnet":"?xt=urn:btih:b1309abe72d556558b42d07688cae120afc43479&amp;dn=Savas+Tanr%C3%84%C2%B1s%C3%84%C2%B1+XviD+TrDuB+2005+MesajForUM.CoM.avi&amp;tr=udp%3A%2F%2Ftracker.openbittorrent.com%3A80&amp;tr=udp%3A%2F%2Fopen.demonii.com%3A1337&amp;tr=udp%3A%2F%2Ftracker.coppersurfer.tk%3A6969&amp;tr=udp%3A%2F%2Fexodus.desync.com%3A6969","seeders":0,"leechers":0,"uploader":"knife130","files":1,"time":1284248390,"description":":::::::::::::::::::::::SavaÃ…Å¸ TanrÃ„Â±sÃ„Â± XviD DvDRiP TRDUB 2005::::::::::::::::::::::::\n\n\n\n\nFormat                           : AVI\nFormat/Info                      : Audio Video Interleave\nFile size                        : 1.37 GiB\nDuration                         : 1h 56mn\nOverall bit rate                 : 1 676 Kbps\nWriting application              : VirtualDubMod 1.5.4.1 (build 2178/release)\nWriting library                  : VirtualDubMod build 2178/release\n\nVideo\nID                               : 0\nFormat                           : MPEG-4 Visual\nFormat profile                   : Advanced Simple@L5\nFormat settings, BVOP            : Yes\nFormat settings, QPel            : No\nFormat settings, GMC             : No warppoints\nFormat settings, Matrix          : Custom\nCodec ID                         : XVID\nCodec ID/Hint                    : XviD\nDuration                         : 1h 56mn\nBit rate                         : 1 477 Kbps\nWidth                            : 704 pixels\nHeight                           : 400 pixels\nDisplay aspect ratio             : 16:9\nFrame rate                       : 25.000 fps\nColor space                      : YUV\nChroma subsampling               : 4:2:0\nBit depth                        : 8 bits\nScan type                        : Progressive\nBits/(Pixel*Frame)               : 0.210\nStream size                      : 1.21 GiB (88%)\nWriting library                  : XviD 1.2.0.dev47 (UTC 2006-11-01)\n\nAudio\nID                               : 1\nFormat                           : AC-3\nFormat/Info                      : Audio Coding 3\nMode extension                   : CM (complete main)\nCodec ID                         : 2000\nDuration                         : 1h 56mn\nBit rate mode                    : Constant\nBit rate                         : 192 Kbps\nChannel(s)                       : 2 channels\nChannel positions                : Front: L R\nSampling rate                    : 48.0 KHz\nBit depth                        : 16 bits\nStream size                      : 160 MiB (11%)\nAlignment                        : Aligned on interleaves\nInterleave, duration             : 96 ms (2.40 video frames)\nInterleave, preload duration     : 96 ms\nLanguage                         : Turkish\n\n\n\n","torrent":{"xt":"urn:btih:b1309abe72d556558b42d07688cae120afc43479","amp;dn":"Savas+Tanr%C3%84%C2%B1s%C3%84%C2%B1+XviD+TrDuB+2005+MesajForUM.CoM.avi","amp;tr":["udp%3A%2F%2Ftracker.openbittorrent.com%3A80","udp%3A%2F%2Fopen.demonii.com%3A1337","udp%3A%2F%2Ftracker.coppersurfer.tk%3A6969","udp%3A%2F%2Fexodus.desync.com%3A6969"],"infoHash":"b1309abe72d556558b42d07688cae120afc43479","infoHashBuffer":{"type":"Buffer","data":[177,48,154,190,114,213,86,85,139,66,208,118,136,202,225,32,175,196,52,121]},"announce":[],"urlList":[]}}